<svg xmlns="http://www.w3.org/2000/svg" viewBox="0 0 340.99 150.05"><defs><style>.cls-1{fill:#fff;}.cls-2{fill:#062c3a;}</style></defs><g id="Layer_2" data-name="Layer 2"><g id="Layer_1-2" data-name="Layer 1"><path class="cls-1" d="M136.59,50.61V27.2A2,2,0,0,1,138.8,25h14.53a1.27,1.27,0,0,1,1.43,1.44V28.6A1.28,1.28,0,0,1,153.33,30H142.84v6.53h8A2.31,2.31,0,0,1,153.4,39v.16a2.32,2.32,0,0,1-2.56,2.48h-8v9a1.47,1.47,0,0,1-1.55,1.56H138.1A1.44,1.44,0,0,1,136.59,50.61Z"/><path class="cls-1" d="M157.91,50.61V46.85A17,17,0,0,1,159,40.32l4.19-13c.55-1.7,1.24-2.4,2.91-2.4H170c1.67,0,2.37.7,2.91,2.4l4.19,13a17,17,0,0,1,1.09,6.53v3.76a1.48,1.48,0,0,1-1.59,1.56h-2.91a1.49,1.49,0,0,1-1.6-1.56V45.33h-8.23v5.28a1.45,1.45,0,0,1-1.55,1.56h-2.84A1.47,1.47,0,0,1,157.91,50.61Zm13.2-10.13L168,30l-3.19,10.53Z"/><path class="cls-1" d="M182,50V27.2A2.07,2.07,0,0,1,184.16,25h8.35c5.91,0,8.78,2.22,8.78,6.8v1.28a5.18,5.18,0,0,1-3.42,5.2,5.44,5.44,0,0,1,3.81,5.44v1.48q0,7-8.85,7h-8.67A2.07,2.07,0,0,1,182,50Zm6.21-20.42v6.72H192c2.18,0,3.15-.86,3.15-2.68V32.25c0-1.87-1-2.72-3.15-2.72Zm4.08,18.09c2.22,0,3.26-.89,3.26-2.79V43.39c0-1.9-1-2.76-3.26-2.76h-4.08v7Z"/><path class="cls-1" d="M206.61,50V26.54A1.47,1.47,0,0,1,208.17,25h3.18a1.45,1.45,0,0,1,1.52,1.56V47.12h10.4a1.28,1.28,0,0,1,1.44,1.44v2.17a1.26,1.26,0,0,1-1.44,1.44H208.83A2.07,2.07,0,0,1,206.61,50Z"/><path class="cls-1" d="M227.82,50.61V46.85a17,17,0,0,1,1.09-6.53l4.19-13c.54-1.7,1.24-2.4,2.91-2.4h3.89c1.67,0,2.37.7,2.91,2.4l4.19,13a17,17,0,0,1,1.09,6.53v3.76a1.48,1.48,0,0,1-1.59,1.56h-2.91a1.49,1.49,0,0,1-1.6-1.56V45.33h-8.23v5.28a1.45,1.45,0,0,1-1.55,1.56h-2.84A1.47,1.47,0,0,1,227.82,50.61ZM241,40.48,237.88,30l-3.19,10.53Z"/><path class="cls-1" d="M251.86,50V27.2A2.06,2.06,0,0,1,254.07,25h8.35c5.91,0,8.78,2.22,8.78,6.8v1.28a5.18,5.18,0,0,1-3.42,5.2,5.44,5.44,0,0,1,3.81,5.44v1.48q0,7-8.86,7h-8.66A2.06,2.06,0,0,1,251.86,50Zm6.21-20.42v6.72h3.81c2.17,0,3.15-.86,3.15-2.68V32.25c0-1.87-1-2.72-3.15-2.72Zm4.08,18.09c2.22,0,3.26-.89,3.26-2.79V43.39c0-1.9-1-2.76-3.26-2.76h-4.08v7Z"/><path class="cls-1" d="M134.61,83.59V81.84a2.64,2.64,0,0,1,2.87-3h.39a2.61,2.61,0,0,1,2.83,2.91v1.75c0,2,1.17,3.11,3.58,3.11s3.57-1.09,3.57-3.11V65.38a1.44,1.44,0,0,1,1.51-1.56h3.19a1.47,1.47,0,0,1,1.55,1.56V83.24c0,5.36-3.73,8.23-9.82,8.23S134.61,88.79,134.61,83.59Z"/><path class="cls-1" d="M158.07,82.85V71.94c0-5.44,3.68-8.58,10-8.58s10,3.14,10,8.58V82.85c0,5.48-3.65,8.62-10,8.62S158.07,88.29,158.07,82.85Zm13.67.16V71.86c0-2.45-1.21-3.69-3.69-3.69s-3.69,1.24-3.69,3.69V83c0,2.4,1.24,3.65,3.69,3.65S171.74,85.41,171.74,83Z"/><path class="cls-1" d="M182.5,89.76V87.24A1.1,1.1,0,0,1,183.7,86h4.5V68.79h-4.5a1.09,1.09,0,0,1-1.2-1.2V65.06a1.11,1.11,0,0,1,1.2-1.24H199a1.14,1.14,0,0,1,1.24,1.24v2.53a1.13,1.13,0,0,1-1.24,1.2H194.5V86H199a1.13,1.13,0,0,1,1.24,1.21v2.52A1.14,1.14,0,0,1,199,91H183.7A1.11,1.11,0,0,1,182.5,89.76Z"/><path class="cls-1" d="M205,89.49V66.19a2.21,2.21,0,0,1,2.41-2.37h2.29a2.58,2.58,0,0,1,2.83,1.9l6.33,15.5V65.34a1.39,1.39,0,0,1,1.44-1.52h2.56a1.36,1.36,0,0,1,1.4,1.52v23.3A2.22,2.22,0,0,1,221.87,91h-2.25a2.6,2.6,0,0,1-2.83-1.91l-6.37-15.38V89.49A1.39,1.39,0,0,1,209,91h-2.56A1.37,1.37,0,0,1,205,89.49Z"/><path class="cls-1" d="M248.09,65.38v3.76A17.21,17.21,0,0,1,247,75.78l-4.23,12.9c-.54,1.7-1.24,2.4-2.83,2.4H236c-1.59,0-2.29-.7-2.83-2.4L229,75.78a17.21,17.21,0,0,1-1.13-6.64V65.38a1.48,1.48,0,0,1,1.59-1.56h3A1.47,1.47,0,0,1,234,65.38v3.8a16.72,16.72,0,0,0,.82,5.48L238,85.37l3.23-10.71a16.47,16.47,0,0,0,.77-5.48v-3.8a1.48,1.48,0,0,1,1.59-1.56h2.92A1.47,1.47,0,0,1,248.09,65.38Z"/><path class="cls-1" d="M252.4,89.76V87.24A1.11,1.11,0,0,1,253.61,86h4.5V68.79h-4.5a1.1,1.1,0,0,1-1.21-1.2V65.06a1.12,1.12,0,0,1,1.21-1.24h15.26a1.14,1.14,0,0,1,1.24,1.24v2.53a1.13,1.13,0,0,1-1.24,1.2H264.4V86h4.47a1.13,1.13,0,0,1,1.24,1.21v2.52A1.14,1.14,0,0,1,268.87,91H253.61A1.12,1.12,0,0,1,252.4,89.76Z"/><path class="cls-1" d="M276.52,88.79V65.38a1.47,1.47,0,0,1,1.56-1.56h3.18a1.44,1.44,0,0,1,1.51,1.56V86h10.41a1.27,1.27,0,0,1,1.44,1.43v2.18A1.26,1.26,0,0,1,293.18,91H278.74A2.07,2.07,0,0,1,276.52,88.79Z"/><path class="cls-1" d="M299.83,88.79V65.38a1.47,1.47,0,0,1,1.55-1.56h3.18a1.44,1.44,0,0,1,1.52,1.56V86h10.41a1.27,1.27,0,0,1,1.43,1.43v2.18A1.26,1.26,0,0,1,316.49,91H302A2.06,2.06,0,0,1,299.83,88.79Z"/><path class="cls-1" d="M322.62,88.79V66a2.08,2.08,0,0,1,2.26-2.22h14.67A1.28,1.28,0,0,1,341,65.26v2.1a1.27,1.27,0,0,1-1.44,1.43H328.88v5.87h7.68a2.32,2.32,0,0,1,2.57,2.44v.16a2.32,2.32,0,0,1-2.57,2.44h-7.68V86h10.67A1.28,1.28,0,0,1,341,87.47v2.1A1.28,1.28,0,0,1,339.55,91H324.88A2.08,2.08,0,0,1,322.62,88.79Z"/><path class="cls-2" d="M114.55,25.91a1.08,1.08,0,0,0-1.09-1.08H100.79V24.1a8.68,8.68,0,0,0-8.68-8.68H77V1.09A1.09,1.09,0,0,0,75.93,0H25.12a7,7,0,0,0-4.61,1.74l-.13.1L20.24,2l-.15.15-18,18a6.94,6.94,0,0,0-2.07,5v65A1.08,1.08,0,0,0,1.09,91.2H13.3v44.22a14.65,14.65,0,0,0,14.62,14.63H70.11a8.63,8.63,0,0,0,6.14-2.55L98,125.78a8.67,8.67,0,0,0,2.53-6.5c0-.12,0-.24,0-.36V105.66l12.08-12.08a.53.53,0,0,0,.12-.14,7,7,0,0,0,1.84-4.72ZM44.79,50.79H63.25V99a1.09,1.09,0,0,0,1.09,1.09h26.4v17.74H49.64A4.85,4.85,0,0,1,44.79,113Zm67.59,37.93a4.86,4.86,0,0,1-4.86,4.85H74.2a4.85,4.85,0,0,1-4.85-4.85v-22H87.81V77.28a1.09,1.09,0,0,0,1.09,1.09h3.93a1.09,1.09,0,0,0,1.08-1.09V45.83a1.09,1.09,0,0,0-1.08-1.09h-23L76.33,27h36.05ZM92.11,16.87a7.24,7.24,0,0,1,7.24,7.23v.73H72.47l4.1-2.95.13-.11v0l.11-.12,0-.06a.39.39,0,0,0,.06-.11l0-.06a1.09,1.09,0,0,0,0-.17v0A1.11,1.11,0,0,0,77,21V16.87ZM74.85,2.17V19.91h-35A1.08,1.08,0,0,0,38.74,21v4.91A1.08,1.08,0,0,0,39.82,27h29.6L63,44.74H39.82a1.08,1.08,0,0,0-1.08,1.09v25.1H20.27V7a4.86,4.86,0,0,1,4.85-4.86ZM99.06,118.92v.39a7.26,7.26,0,0,1-2.12,5.45L75.23,146.48a7.19,7.19,0,0,1-5.12,2.12H27.92a13.2,13.2,0,0,1-13.18-13.18V91.2H20.9v44.22a7,7,0,0,0,7,7H70.11a1.09,1.09,0,0,0,.76-.32l21.72-21.72a1.06,1.06,0,0,0,.32-.77v-6.72a7.23,7.23,0,0,0,1.55-1.2.12.12,0,0,1,.05,0l4.55-4.56Z"/><path class="cls-1" d="M114.55,25.91a1.08,1.08,0,0,0-1.09-1.08H100.79V24.1a8.68,8.68,0,0,0-8.68-8.68H77V1.09A1.09,1.09,0,0,0,75.93,0H25.12a7,7,0,0,0-4.61,1.74l-.13.1L20.24,2l-.15.15-18,18a6.94,6.94,0,0,0-2.07,5v65A1.08,1.08,0,0,0,1.09,91.2H13.3v44.22a14.65,14.65,0,0,0,14.62,14.63H70.11a8.63,8.63,0,0,0,6.14-2.55L98,125.78a8.67,8.67,0,0,0,2.53-6.5c0-.12,0-.24,0-.36V105.66l12.08-12.08a.53.53,0,0,0,.12-.14,7,7,0,0,0,1.84-4.72ZM44.79,50.79H63.25V99a1.09,1.09,0,0,0,1.09,1.09h26.4v17.74H49.64A4.86,4.86,0,0,1,44.79,113Zm67.59,37.93a4.86,4.86,0,0,1-4.86,4.85H74.2a4.85,4.85,0,0,1-4.85-4.85v-22H87.81V77.28a1.09,1.09,0,0,0,1.09,1.09h3.92a1.09,1.09,0,0,0,1.09-1.09V45.83a1.09,1.09,0,0,0-1.09-1.09H69.88L76.33,27h36.05ZM92.11,16.87a7.24,7.24,0,0,1,7.24,7.23v.73H72.47l4.1-2.95.13-.11v0l.11-.12,0-.06a.39.39,0,0,0,.06-.11l0-.06a1.09,1.09,0,0,0,0-.17v0A1.11,1.11,0,0,0,77,21V16.87ZM74.85,2.17V19.91h-35A1.08,1.08,0,0,0,38.74,21v4.91A1.08,1.08,0,0,0,39.82,27h29.6L63,44.74H39.82a1.08,1.08,0,0,0-1.08,1.09v25.1H20.27V7a4.86,4.86,0,0,1,4.85-4.86ZM99.06,118.92v.39a7.26,7.26,0,0,1-2.12,5.45L75.23,146.48a7.19,7.19,0,0,1-5.12,2.12H27.92a13.2,13.2,0,0,1-13.18-13.18V91.2H20.9v44.22a7,7,0,0,0,7,7H70.11a1.09,1.09,0,0,0,.76-.32l21.72-21.72a1.06,1.06,0,0,0,.32-.77v-6.72a7.48,7.48,0,0,0,1.55-1.2.12.12,0,0,1,.05,0l4.55-4.56Z"/></g></g></svg>